<svg width="870" height="207" viewBox="0 0 870 207" fill="none" xmlns="http://www.w3.org/2000/svg">
<path d="M139.779 206.583V47.259H170.427V62.2321H171.129C178.85 51.7041 190.08 43.9836 206.456 43.9836C238.274 43.9836 258.628 69.9527 258.628 107.386C258.628 146.222 237.572 170.787 206.69 170.787C189.846 170.787 178.85 164.003 172.065 153.709H171.597V206.583H139.779ZM199.906 144.35C216.049 144.35 226.343 131.015 226.343 108.321C226.343 85.6277 218.388 69.7187 198.736 69.7187C178.85 69.7187 170.895 86.7974 170.895 108.321C170.895 130.079 180.955 144.35 199.906 144.35Z" fill="#000610"/>
<path d="M273.435 206.583V47.259H304.083V62.2321H304.785C312.506 51.7041 323.736 43.9836 340.113 43.9836C371.93 43.9836 392.285 69.9527 392.285 107.386C392.285 146.222 371.229 170.787 340.346 170.787C323.502 170.787 312.506 164.003 305.721 153.709H305.253V206.583H273.435ZM333.562 144.35C349.705 144.35 359.999 131.015 359.999 108.321C359.999 85.6277 352.044 69.7187 332.392 69.7187C312.506 69.7187 304.551 86.7974 304.551 108.321C304.551 130.079 314.611 144.35 333.562 144.35Z" fill="#000610"/>
<path d="M407.559 167.278V0H439.377V167.278H407.559Z" fill="#000610"/>
<path d="M460.325 167.278V47.259H492.143V167.278H460.325Z" fill="#000610"/>
<path d="M568.327 170.787C530.426 170.787 506.797 143.181 506.797 107.386C506.797 71.5904 530.192 43.9836 566.689 43.9836C597.805 43.9836 616.99 61.9982 621.201 87.9672H590.085C587.979 77.4392 579.791 69.4847 568.093 69.4847C548.909 69.4847 539.082 84.2239 539.082 107.386C539.082 130.079 548.207 145.286 567.625 145.286C580.493 145.286 589.617 138.502 591.722 124.932H622.371C620.265 150.433 600.379 170.787 568.327 170.787Z" fill="#000610"/>
<path d="M714.101 167.278C712.229 164.939 711.06 159.324 710.358 153.943H709.89C703.807 163.067 695.151 170.086 674.563 170.086C649.997 170.086 632.685 157.218 632.685 133.355C632.685 106.918 654.209 98.4952 680.879 94.7519C700.766 91.9445 709.89 90.3068 709.89 81.1825C709.89 72.5262 703.105 66.9112 689.77 66.9112C674.797 66.9112 667.544 72.2922 666.608 83.756H638.3C639.235 62.7 654.91 44.2176 690.004 44.2176C726.033 44.2176 740.538 60.3605 740.538 88.4351V149.497C740.538 158.622 741.942 164.003 744.749 166.108V167.278H714.101ZM682.283 147.86C700.532 147.86 710.592 136.63 710.592 124.932V106.918C704.977 110.193 696.321 112.065 688.366 113.936C671.755 117.68 663.567 121.423 663.567 132.653C663.567 143.883 671.053 147.86 682.283 147.86Z" fill="#000610"/>
<path d="M791.882 47.259V63.6359H792.584C800.773 50.7683 811.768 43.9836 828.145 43.9836C852.945 43.9836 869.555 62.7 869.555 88.903V167.278H837.737V93.5821C837.737 80.7146 830.251 71.5903 816.915 71.5903C802.878 71.5903 792.584 82.8202 792.584 99.1971V167.278H760.766V47.259H791.882Z" fill="#000610"/>
<path d="M120.258 163.926L96.3668 164.029V90.1326L22.5728 163.926L5.0939 146.447L78.8878 72.654L33.2035 72.7057L33.2552 48.763L82.477 48.763C103.343 48.763 120.258 65.6855 120.258 86.5605V163.926Z" fill="#0068F4"/>
<path fill-rule="evenodd" clip-rule="evenodd" d="M123.858 167.512L92.7654 167.647V98.826L22.5719 169.019L0 146.447L70.1857 76.2621L29.5943 76.3103L29.6616 45.1609L82.4762 45.161C105.331 45.161 123.858 63.6961 123.858 86.5605V167.512ZM78.8878 72.654L5.0939 146.447L22.5728 163.926L96.3668 90.1326V164.029L120.258 163.926V86.5605C120.258 65.6855 103.343 48.763 82.477 48.763L33.2552 48.763L33.2035 72.7057L78.8878 72.654Z" fill="#0068F4"/>
</svg>
