<svg width="23" height="23" viewBox="0 0 23 23" fill="none" xmlns="http://www.w3.org/2000/svg">
<path fill-rule="evenodd" clip-rule="evenodd" d="M23 11.5C23 5.14871 17.8523 0 11.5 0C5.14771 0 0 5.14871 0 11.5C0 17.8513 5.14946 23 11.5 23C17.8493 23 23 17.8513 23 11.5ZM17.5389 15.9447C17.9782 16.385 17.9782 17.0976 17.5389 17.5379C17.0996 17.9782 16.385 17.9782 15.9457 17.5379L11.8036 13.3958C10.8713 12.4626 10.3725 11.2657 10.3725 9.94404V4.4607C10.3725 3.83884 10.8782 3.33414 11.5 3.33414C12.1219 3.33414 12.6276 3.83884 12.6276 4.4607V9.94404C12.6276 10.6909 12.8677 11.2746 13.3978 11.8028L17.5389 15.9447Z" fill="black"/>
</svg>
