<svg width="14" height="14" viewBox="0 0 14 14" fill="none" xmlns="http://www.w3.org/2000/svg">
<path fill-rule="evenodd" clip-rule="evenodd" d="M0 7C0 3.13401 3.13401 0 7 0C10.866 0 14 3.13401 14 7C14 10.866 10.866 14 7 14C3.13401 14 0 10.866 0 7ZM7.49497 4.40503C7.35784 4.2679 7.17941 4.19968 6.99876 4.2C6.81895 4.20032 6.64154 4.26851 6.50502 4.40503C6.23166 4.67839 5.78844 4.67839 5.51507 4.40503C5.24171 4.13166 5.24171 3.68844 5.51507 3.41508C5.92404 3.00611 6.46117 2.80094 6.9963 2.8C7.53387 2.79906 8.07406 3.00421 8.48492 3.41508C8.89484 3.82499 9.1 4.36365 9.1 4.9C9.1 5.43636 8.89484 5.97501 8.48492 6.38492C8.25575 6.6141 7.98633 6.77927 7.69958 6.88038L7.69999 6.99753C7.70136 7.38413 7.38907 7.69863 7.00247 7.7C6.61587 7.70136 6.30137 7.38907 6.3 7.00247L6.29753 6.30247C6.29688 6.11618 6.3705 5.93731 6.50211 5.80546C6.63373 5.67362 6.81246 5.59967 6.99876 5.6C7.17941 5.60032 7.35784 5.5321 7.49497 5.39497C7.63179 5.25815 7.7 5.08023 7.7 4.9C7.7 4.71977 7.63179 4.54185 7.49497 4.40503ZM5.94998 9.80013C5.94998 9.22023 6.42008 8.75013 6.99998 8.75013H7.00698C7.58688 8.75013 8.05698 9.22023 8.05698 9.80013V9.80713C8.05698 10.387 7.58688 10.8571 7.00698 10.8571H6.99998C6.42008 10.8571 5.94998 10.387 5.94998 9.80713V9.80013Z" fill="white"/>
</svg>
