<svg width="24" height="24" viewBox="0 0 24 24" fill="none" xmlns="http://www.w3.org/2000/svg">
  <!-- Lid -->
  <path d="M9 4C9 3.448 9.448 3 10 3H14C14.552 3 15 3.448 15 4V5H9V4Z" fill="#0068F4"/>

  <!-- Top bar -->
  <path d="M5 6C5 5.448 5.448 5 6 5H18C18.552 5 19 5.448 19 6C19 6.552 18.552 7 18 7H6C5.448 7 5 6.552 5 6Z" fill="#E6EAF0"/>

  <!-- Body -->
  <path d="M7.25 8H16.75L16.05 18.147C15.974 19.243 15.063 20.094 13.965 20.094H10.035C8.937 20.094 8.026 19.243 7.95 18.147L7.25 8Z" fill="#E6EAF0"/>

  <!-- Inner lines -->
  <rect x="9.25" y="10.25" width="1.5" height="6.25" rx="0.75" fill="#0068F4"/>
  <rect x="13.25" y="10.25" width="1.5" height="6.25" rx="0.75" fill="#0068F4"/>
</svg>